<svg width="560" height="900" viewBox="0 0 560 900" preserveAspectRatio="none" fill="none" xmlns="http://www.w3.org/2000/svg">
<g clip-path="url(#clip0_89_4720)">
<g clip-path="url(#clip1_89_4720)">
<path d="M560 0H0V900H560V0Z" fill="url(#paint0_linear_89_4720)"/>
<path opacity="0.55" d="M126 228.462C141.464 228.462 154 197.466 154 159.231C154 120.996 141.464 90 126 90C110.536 90 98 120.996 98 159.231C98 197.466 110.536 228.462 126 228.462Z" fill="#F3B472"/>
<path d="M0 408.462C54.1333 348.462 109.2 341.538 165.2 387.692C228.667 323.077 291.2 318.462 352.8 373.846C418.133 323.077 487.2 323.077 560 373.846V519.231H0V408.462Z" fill="#A9B79B"/>
<path d="M0 505.385C72.8 445.385 146.533 440.769 221.2 491.539C305.2 431.539 379.867 426.923 445.2 477.692C484.4 454.616 522.667 456.923 560 484.616V616.154H0V505.385Z" fill="#7E9877"/>
<path d="M0 588.462C93.3333 556.154 186.667 551.539 280 574.615C373.333 593.077 466.667 588.462 560 560.769V657.692C466.667 685.385 373.333 687.692 280 664.615C186.667 641.539 93.3333 646.154 0 678.462V588.462Z" fill="#638B5E"/>
<path d="M0 678.462C97.0667 650.769 192.267 648.462 285.6 671.538C378.933 690 470.4 685.385 560 657.692V761.538C470.4 789.231 378.933 791.538 285.6 768.462C192.267 745.385 97.0667 750 0 782.308V678.462Z" fill="#527A52"/>
<path d="M0 782.308C100.8 754.615 197.867 752.308 291.2 775.385C384.533 793.846 474.133 789.231 560 761.539V900H0V782.308Z" fill="#456845"/>
<path d="M57.3998 547.572C43.892 547.572 39.3894 566.412 46.2333 578.47C42.9914 589.02 51.9967 598.064 57.3998 595.803C62.803 598.064 71.8082 589.02 68.5663 578.47C75.4103 566.412 70.9077 547.572 57.3998 547.572Z" fill="#264C37"/>
<path d="M56.2915 585.252H58.5082V609.231H56.2915V585.252Z" fill="#6E5238"/>
<path d="M145.6 547.327C132.038 547.327 127.518 566.242 134.389 578.348C131.134 588.94 140.175 598.019 145.6 595.75C151.024 598.019 160.065 588.94 156.811 578.348C163.682 566.242 159.161 547.327 145.6 547.327Z" fill="#264C37"/>
<path d="M144.487 585.157H146.713V609.231H144.487V585.157Z" fill="#6E5238"/>
<path d="M275.8 534.613C259.453 534.613 254.004 557.413 262.286 572.005C258.363 584.773 269.261 595.717 275.8 592.981C282.338 595.717 293.236 584.773 289.313 572.005C297.596 557.413 292.147 534.613 275.8 534.613Z" fill="#264C37"/>
<path d="M274.459 580.213H277.142V609.231H274.459V580.213Z" fill="#6E5238"/>
<path d="M410.2 542.12C395.498 542.12 390.597 562.626 398.046 575.75C394.518 587.233 404.319 597.076 410.2 594.616C416.081 597.076 425.882 587.233 422.354 575.75C429.803 562.626 424.902 542.12 410.2 542.12Z" fill="#264C37"/>
<path d="M408.994 583.132H411.406V609.231H408.994V583.132Z" fill="#6E5238"/>
<path d="M519.4 534.948C503.127 534.948 497.702 557.646 505.947 572.172C502.042 584.883 512.891 595.777 519.4 593.054C525.909 595.777 536.758 584.883 532.853 572.172C541.098 557.646 535.673 534.948 519.4 534.948Z" fill="#264C37"/>
<path d="M518.065 580.343H520.735V609.231H518.065V580.343Z" fill="#6E5238"/>
<path d="M39.2 620.339C18.8835 620.339 12.1114 648.675 22.4051 666.811C17.5291 682.679 31.0734 696.281 39.2 692.881C47.3266 696.281 60.8709 682.679 55.995 666.811C66.2887 648.675 59.5165 620.339 39.2 620.339Z" fill="#2E5940"/>
<path d="M37.5332 677.012H40.8672V713.077H37.5332V677.012Z" fill="#6E5238"/>
<path d="M208.6 625.726C189.464 625.726 183.085 652.416 192.781 669.498C188.188 684.445 200.945 697.257 208.6 694.054C216.254 697.257 229.012 684.445 224.419 669.498C234.115 652.416 227.736 625.726 208.6 625.726Z" fill="#2E5940"/>
<path d="M207.03 679.107H210.17V713.077H207.03V679.107Z" fill="#6E5238"/>
<path d="M364 617.275C343.012 617.275 336.016 646.548 346.65 665.282C341.613 681.675 355.605 695.726 364 692.213C372.395 695.726 386.387 681.675 381.35 665.282C391.984 646.548 384.988 617.275 364 617.275Z" fill="#2E5940"/>
<path d="M362.278 675.821H365.722V713.077H362.278V675.821Z" fill="#6E5238"/>
<path d="M520.8 601.723C496.405 601.723 488.274 635.748 500.634 657.524C494.779 676.578 511.042 692.91 520.8 688.827C530.558 692.91 546.821 676.578 540.966 657.524C553.326 635.748 545.195 601.723 520.8 601.723Z" fill="#2E5940"/>
<path d="M518.798 669.773H522.802V713.077H518.798V669.773Z" fill="#6E5238"/>
<path d="M22.4001 688.662C-11.7653 688.662 -23.1537 736.315 -5.84328 766.812C-14.043 793.497 8.73394 816.371 22.4001 810.652C36.0662 816.371 58.8431 793.497 50.6434 766.812C67.9539 736.315 56.5654 688.662 22.4001 688.662Z" fill="#2E5940"/>
<path d="M19.5967 783.967H25.2033V844.615H19.5967V783.967Z" fill="#6E5238"/>
<path d="M294 696.698C261.595 696.698 250.793 741.895 267.212 770.821C259.435 796.131 281.038 817.826 294 812.402C306.962 817.826 328.565 796.131 320.788 770.821C337.206 741.895 326.405 696.698 294 696.698Z" fill="#2E5940"/>
<path d="M291.341 787.092H296.659V844.615H291.341V787.092Z" fill="#6E5238"/>
<path d="M506.8 696.818C474.421 696.818 463.629 741.978 480.034 770.881C472.263 796.171 493.849 817.848 506.8 812.428C519.751 817.848 541.337 796.171 533.566 770.881C549.972 741.978 539.179 696.818 506.8 696.818Z" fill="#2E5940"/>
<path d="M504.144 787.138H509.457V844.615H504.144V787.138Z" fill="#6E5238"/>
</g>
</g>
<defs>
<linearGradient id="paint0_linear_89_4720" x1="0" y1="0" x2="0" y2="900" gradientUnits="userSpaceOnUse">
<stop stop-color="#F2CFA8"/>
<stop offset="1" stop-color="#E9D9C0"/>
</linearGradient>
<clipPath id="clip0_89_4720">
<rect width="560" height="900" fill="white"/>
</clipPath>
<clipPath id="clip1_89_4720">
<rect width="560" height="900" fill="white"/>
</clipPath>
</defs>
</svg>
